<svg xmlns="http://www.w3.org/2000/svg" width="48" height="48" viewBox="0 0 48 48"><g transform="translate(0 -1004.362)"><circle cx="24" cy="1028.362" r="24" fill="#1d67b1"/><path fill="#fff" fill-rule="evenodd" d="m 15.480469,4.4335938 c -3.021901,0 -5.4805005,2.4692 -5.480469,5.5 2.9e-5,3.0308002 2.458611,5.5000002 5.480469,5.5000002 3.021858,0 5.48044,-2.4692 5.480469,-5.5000002 3e-5,-3.0308 -2.458568,-5.5 -5.480469,-5.5 z m 0,1 c 2.479275,0 4.480494,2.0074999 4.480469,4.5 -2.4e-5,2.4925002 -2.001229,4.5000002 -4.480469,4.5000002 -2.47924,0 -4.480445,-2.0075 -4.480469,-4.5000002 -2.6e-5,-2.4925001 2.001194,-4.5 4.480469,-4.5 z M 12.5,16.433594 c -4.1476285,0 -7.5,3.368197 -7.5,7.529297 l 0,4.515625 a 0.50004994,0.50004994 0 0 0 0.5,0.5 l 3.8535156,0 a 0.50004994,0.50004994 0 0 0 0.2929688,0 l 11.7070316,0 a 0.50004994,0.50004994 0 0 0 0.292968,0 l 3.853516,0 a 0.50004994,0.50004994 0 0 0 0.5,-0.5 l 0,-4.515625 c 0,-4.1611 -3.352371,-7.529297 -7.5,-7.529297 l -6,0 z m 0,1 6,0 c 3.608733,0 6.5,2.902697 6.5,6.529297 l 0,4.015625 -3,0 0,-4.023438 A 0.50004994,0.50004994 0 0 0 21.492188,23.449219 0.50004994,0.50004994 0 0 0 21,23.955078 l 0,4.023438 -11,0 0,-4.023438 A 0.50004994,0.50004994 0 0 0 9.4921875,23.449219 0.50004994,0.50004994 0 0 0 9,23.955078 l 0,4.023438 -3,0 0,-4.015625 c 0,-3.6266 2.8912667,-6.529297 6.5,-6.529297 z" color="#000" font-family="sans-serif" font-weight="400" overflow="visible" transform="translate(8.5 1011.362)" style="line-height:normal;text-indent:0;text-align:start;text-decoration-line:none;text-decoration-style:solid;text-decoration-color:#000;text-transform:none;block-progression:tb;isolation:auto;mix-blend-mode:normal"/></g></svg>